#N canvas 580 319 450 300 12;
#X obj 165 157 osc~ 400;
#X obj 87 221 dac~ 1 2;
#X obj 283 112 receive freq;
#X obj 98 192 *~ 0.4;
#X floatatom 289 200 5 0 0 0 - - -, f 5;
#X obj 285 241 send freq;
#X floatatom 296 153 5 0 0 0 - - -, f 5;
#X connect 0 0 3 0;
#X connect 2 0 0 0;
#X connect 2 0 6 0;
#X connect 3 0 1 0;
#X connect 3 0 1 1;
#X connect 4 0 5 0;
