#N canvas 580 319 450 300 12;
#X obj 98 71 loadbang;
#X obj 98 125 line~;
#X obj 165 157 osc~ 400;
#X obj 216 116 +~ 400;
#X obj 216 77 *~ 200;
#X obj 216 47 osc~ 0.2;
#X obj 87 221 dac~ 1 2;
#X msg 98 101 0 \, 0.1 1000;
#X obj 266 172 receive freq;
#X obj 98 192 *~ 0.4;
#X connect 0 0 7 0;
#X connect 2 0 9 0;
#X connect 4 0 3 0;
#X connect 5 0 4 0;
#X connect 7 0 1 0;
#X connect 8 0 2 0;
#X connect 9 0 6 0;
#X connect 9 0 6 1;
